<svg height="512" viewBox="0 0 60 54" width="512" xmlns="http://www.w3.org/2000/svg"><g id="001---Bird" fill="none"><g id="Icons_copy" transform="translate(1 1)"><path id="Shape" d="m11 0v8l-11 1z" fill="#e8edfc"/><path id="Shape" d="m23.55 9.41-12.55 3.59v-13z" fill="#a4c2f7"/><path id="Shape" d="m39 5-5 28-2-5-10 3-11-18z" fill="#e8edfc"/><path id="Shape" d="m58 9-22.76 17.07 3.76-21.07z" fill="#cad9fc"/><path id="Shape" d="m54.62 8.29-18.71 14.03 3.09-17.32z" fill="#e8edfc"/><path id="Shape" d="m58 19.87-19.61 3.84 12.47-9.35z" fill="#7facfa"/><path id="Shape" d="m53.91 20.67-15.52 3.04 9.87-7.4z" fill="#a4c2f7"/><path id="Shape" d="m42 52-20-21 10-3z" fill="#cad9fc"/><path id="Shape" d="m22 31-10-3-1-15z" fill="#a4c2f7"/></g><g id="Icons_copy_2" fill="#fff" transform="translate(1 1)"><path id="Shape" d="m11 13 1 15 10 3 20 21-2.33-5.6-14.67-15.4-10-3c-1.15-17.26-1-14.66-1-15.86z"/><path id="Shape" d="m14 8-3 .27v4.73l3-.86z"/><path id="Shape" d="m38.7 23.48v.18z"/><path id="Shape" d="m12.56 1.17-1.56-1.17-11 9 3.38-.31z"/></g><path id="Rectangle-path" d="m11.733 21.012h2v8h-2z" fill="#fff" transform="matrix(.998 -.066 .066 .998 -1.634 .901)"/><g fill="#428dff"><path id="Shape" d="m1 11h.09l9.91-.9v3.9.06l.47 7c.0358985.5522847.5127153.9708985 1.065.935s.9708985-.5127153.935-1.065l-.2-3 7.51 12.3-7.49-2.23c-.3572656-.103607-.7426663-.0087449-1.0110254.2488526-.2683591.2575976-.3789065.6387954-.29 1s.3637598.6475404.7210254.7511474l9.75 2.92 19.82 20.77c.1878088.1970153.4478124.3089612.72.31.3352436-.0002731.6480464-.1685145.8330769-.4480714s.2176683-.6332313.0869231-.9419286l-7.92-18.73 1.11-6.24 2.65-2 19.39-3.8c.4085848-.0483209.745875-.3419618.85-.74.0817321-.3747909-.0581329-.7633048-.36-1l-6.1-4.71 6.06-4.59c.3283205-.2313443.4863723-.6366716.4013238-1.02920348-.0850486-.39253185-.3966927-.69609177-.7913238-.77079652l-19-4c-.1576272-.03896948-.3223728-.03896948-.48 0l-15 4.28-.13-.12-12-9-.09-.05h-.08-.14-.13-.27c-.0465494-.00467839-.0934506-.00467839-.14 0l-.13.05c-.0322091.01646972-.0624091.03660302-.09.06 0 0-.07 0-.09.06l-11 9c-.28173316.265373-.38503658.66949122-.26521581 1.0375121.11982076.3680209.44124808.6338547.82521581.6824879zm23.85 21.49 7.56-2.27 1.66 4.15 5.88 14zm31.79-12.18-13.16 2.58 8.37-6.28zm-15.84-13.12 15.83 3.33-19 14.23zm-6.17 23.19-.7-1.75c-.175457-.500122-.7106387-.7764863-1.22-.63l-9.26 2.78-9.91-16.18 25.19-7.2zm-21.63-17.77v-9.61l8.87 6.65zm-2-9.5v5l-6.84.62z"/><path id="Shape" d="m12.75 26c-.5522847 0-1-.4477153-1-1s.4477153-1 1-1 1 .4477153 1 1-.4477153 1-1 1z"/></g></g></svg>